<svg width="60" height="60" viewBox="0 0 60 60" fill="none" xmlns="http://www.w3.org/2000/svg">
<path d="M45 45.5007C50.6148 44.9432 55 40.2059 55 34.4444C55 27.7622 48.8631 22.5062 42.2994 23.4462C42.2887 23.4477 42.2782 23.4422 42.2733 23.4326C39.7629 18.4319 34.5878 15 28.6111 15C20.6494 15 14.11 21.0902 13.3977 28.8662C13.3965 28.8791 13.3855 28.8891 13.3726 28.8891C8.81766 28.8851 5 32.6514 5 37.2222C5 41.8246 8.73096 45.5556 13.3333 45.5556H15" stroke="#2B323F" stroke-width="2" stroke-linecap="round"/>
<path d="M23.75 41.25L29.1161 35.8839C29.6042 35.3957 30.3957 35.3957 30.8838 35.8839L36.2499 41.25" stroke="#2B323F" stroke-width="2" stroke-linecap="round"/>
<path d="M30 37.5L30 52.5" stroke="#2B323F" stroke-width="2" stroke-linecap="round"/>
</svg>
